<!-- icon666.com - MILLIONS vector ICONS FREE --><svg id="Layer_2_00000129916530279782671660000014683464594159448731_" enable-background="new 0 0 512 512" viewBox="0 0 512 512" xmlns="http://www.w3.org/2000/svg" xmlns:xlink="http://www.w3.org/1999/xlink"><linearGradient id="UserSquare_00000056421873118306616060000015541742677895572389_" gradientTransform="matrix(1 0 0 -1 0 512.04)" gradientUnits="userSpaceOnUse" x1="35.986" x2="476.028" y1="476.058" y2="36.016"><stop offset="0" stop-color="#64b5f6"></stop><stop offset="1" stop-color="#1976d2"></stop></linearGradient><g id="Icon"><path id="UserSquare" d="m389.3 512h-266.6c-67.7 0-122.7-55-122.7-122.7v-266.6c0-67.7 55-122.7 122.7-122.7h266.7c67.6 0 122.6 55 122.6 122.7v266.7c0 67.6-55 122.6-122.7 122.6zm-266.6-502c-62.1 0-112.7 50.6-112.7 112.7v266.7c0 62.1 50.6 112.6 112.7 112.6h266.7c62.1 0 112.6-50.5 112.6-112.6v-266.7c0-62.1-50.5-112.7-112.7-112.7zm278.7 449.5h-290.8c-14.1 0-27-6.5-35.4-18-8.3-11.4-10.6-25.7-6.3-39.2l28.7-89.5c5.6-17.5 17.8-31.6 34.3-39.7s35.1-9.1 52.4-2.9c22.2 8 46.3 12.1 71.8 12.1s49.6-4.1 71.8-12.1c17.3-6.2 35.9-5.2 52.4 2.9s28.7 22.2 34.3 39.7l28.7 89.5c4.3 13.5 2 27.7-6.3 39.2-8.6 11.5-21.5 18-35.6 18zm-240-183.2c-8.6 0-17.1 2-25.1 5.9-14 6.9-24.4 18.9-29.2 33.8l-28.7 89.5c-3.3 10.4-1.6 21.4 4.9 30.2 6.4 8.8 16.4 13.9 27.3 13.9h290.8c10.9 0 20.8-5 27.3-13.9 6.4-8.8 8.2-19.8 4.9-30.2l-28.7-89.5c-4.8-14.9-15.1-26.9-29.2-33.8-14-6.9-29.9-7.8-44.6-2.5-23.3 8.4-48.5 12.7-75.2 12.7s-51.9-4.3-75.2-12.7c-6.2-2.3-12.8-3.4-19.3-3.4zm94.6-19.9c-56.2 0-101.9-45.7-101.9-101.9s45.7-102 101.9-102 101.9 45.7 101.9 101.9-45.7 102-101.9 102zm0-193.9c-50.7 0-91.9 41.2-91.9 91.9s41.2 91.9 91.9 91.9 91.9-41.2 91.9-91.9-41.2-91.9-91.9-91.9z" fill="url(#UserSquare_00000056421873118306616060000015541742677895572389_)"></path></g></svg>